<?xml version="1.0" standalone="no"?>
<!DOCTYPE svg PUBLIC "-//W3C//DTD SVG 20010904//EN"
 "http://www.w3.org/TR/2001/REC-SVG-20010904/DTD/svg10.dtd">
<svg version="1.0" xmlns="http://www.w3.org/2000/svg"
 width="70.000000pt" height="70.000000pt" viewBox="0 0 70.000000 70.000000"
 preserveAspectRatio="xMidYMid meet">
<metadata>
Created by potrace 1.14, written by Peter Selinger 2001-2017
</metadata>
<g transform="translate(0.000000,70.000000) scale(0.100000,-0.100000)"
fill="#000000" stroke="none">
<path d="M0 587 c0 -112 0 -114 25 -125 14 -6 25 -8 25 -3 0 5 -7 11 -15 15
-17 6 -21 36 -5 36 6 0 10 -7 10 -16 0 -12 6 -15 23 -10 12 3 26 6 30 6 5 0
-4 14 -20 30 -15 17 -34 30 -40 30 -7 0 -13 5 -13 10 0 7 7 7 21 -1 20 -10 21
-9 17 15 -3 14 -1 26 3 26 5 0 9 5 9 10 0 6 -6 10 -14 10 -19 0 -29 30 -12 36
8 3 16 14 19 25 4 16 0 19 -29 19 l-34 0 0 -113z"/>
<path d="M150 670 c12 -16 19 -34 16 -38 -3 -5 6 -14 21 -21 24 -11 25 -11 13
5 -12 14 -12 18 3 29 11 8 14 16 8 19 -5 4 -12 2 -16 -4 -11 -17 -25 -11 -37
15 -6 14 -15 25 -20 25 -5 0 0 -13 12 -30z"/>
<path d="M308 693 c19 -7 14 -20 -10 -27 -19 -4 -20 -7 -9 -18 11 -10 14 -10
18 0 7 19 40 14 46 -7 4 -16 -2 -21 -24 -26 -18 -4 -29 -13 -28 -23 0 -12 2
-13 6 -4 4 10 10 9 25 -5 20 -18 21 -18 10 3 -10 19 -8 23 8 27 15 4 20 0 20
-14 0 -10 5 -19 10 -19 13 0 13 27 0 35 -6 4 -8 11 -4 16 3 6 -2 20 -13 31
-18 21 -18 21 4 7 28 -17 38 -62 23 -100 -7 -16 -10 -32 -6 -36 3 -3 6 0 6 7
0 7 7 21 15 30 8 9 16 25 18 36 1 10 7 26 12 34 5 8 8 23 7 33 -2 9 1 17 6 17
15 0 35 -47 29 -69 -3 -12 -1 -19 4 -15 5 3 9 13 9 23 0 19 36 58 46 49 9 -9
-8 -58 -20 -58 -6 0 -26 -14 -45 -30 -18 -17 -36 -28 -41 -25 -5 3 -12 0 -15
-6 -5 -7 1 -10 16 -8 13 2 30 0 37 -5 7 -4 20 -2 30 6 15 12 16 11 3 -5 -8 -9
-12 -20 -9 -22 9 -10 38 7 38 21 0 16 16 19 25 4 10 -16 25 -11 25 9 0 10 7
24 15 31 21 17 19 30 -4 30 -30 0 -34 17 -5 23 32 6 41 -13 24 -52 -6 -16 -9
-39 -5 -51 6 -18 3 -20 -17 -17 -13 2 -17 2 -10 0 7 -3 10 -9 6 -14 -5 -9 64
15 74 25 2 2 -6 7 -17 11 -19 6 -20 12 -15 61 5 39 3 58 -7 70 -13 16 -12 16
8 5 24 -12 73 -5 73 11 0 6 -37 9 -96 6 -78 -2 -98 -6 -109 -21 -13 -18 -14
-17 -20 3 -6 19 -13 21 -93 19 -48 -1 -81 -4 -74 -6z m242 -87 c0 -2 -8 -10
-17 -17 -16 -13 -17 -12 -4 4 13 16 21 21 21 13z"/>
<path d="M87 684 c-13 -13 -7 -44 8 -44 8 0 15 6 15 13 0 8 4 7 11 -3 8 -12 9
-10 7 10 -3 24 -27 38 -41 24z"/>
<path d="M242 647 c3 -16 1 -25 -6 -24 -6 1 -10 -6 -8 -16 2 -12 -4 -20 -16
-24 -27 -7 -36 -42 -14 -50 25 -9 32 -25 25 -52 -5 -20 -3 -22 15 -17 11 4 23
2 27 -4 5 -8 13 -6 26 6 23 21 25 50 4 58 -8 3 -15 14 -15 25 0 11 -5 23 -10
26 -8 5 -8 11 -1 19 6 7 7 17 3 21 -4 5 -2 5 5 1 6 -3 14 -2 18 4 3 5 -6 12
-20 16 -13 3 -23 10 -20 14 3 5 0 12 -6 16 -8 5 -10 -1 -7 -19z"/>
<path d="M677 642 c-12 -2 -16 -9 -13 -19 3 -8 6 -22 6 -31 0 -15 1 -15 16 0
21 21 15 55 -9 50z"/>
<path d="M110 626 c0 -4 5 -16 10 -26 7 -13 7 -21 0 -25 -10 -6 32 -55 46 -55
12 0 1 29 -26 69 -17 24 -30 41 -30 37z"/>
<path d="M675 561 c-3 -5 -1 -12 5 -16 17 -11 11 -43 -10 -50 -19 -6 -22 -11
-24 -44 -1 -7 -13 -23 -27 -35 -33 -27 -49 -96 -23 -96 23 0 9 -13 -16 -15
-14 -1 -20 5 -20 19 -1 20 -1 20 -20 -3 -11 -12 -17 -28 -13 -34 3 -6 1 -7 -5
-3 -7 4 -12 1 -12 -7 0 -26 13 -27 39 -5 14 13 20 16 13 7 -11 -14 -9 -20 11
-36 30 -23 24 -43 -15 -43 -26 0 -29 -3 -22 -22 8 -26 7 -104 -1 -119 -4 -5
-22 -9 -42 -9 -30 0 -34 -2 -23 -15 10 -12 9 -15 -6 -15 -16 0 -17 -2 -4 -10
17 -11 127 -14 116 -3 -4 4 -13 8 -19 9 -7 0 -20 2 -29 2 -10 1 -18 7 -18 12
0 7 7 7 21 -1 23 -12 39 0 39 29 0 8 8 12 18 10 9 -2 22 3 28 11 10 13 14 13
28 1 16 -12 15 -15 -8 -37 -37 -34 -32 -43 18 -43 l45 0 0 115 c0 63 -3 115
-7 115 -13 0 -28 -15 -35 -33 -4 -9 -15 -20 -24 -24 -10 -4 -21 -11 -25 -17
-11 -16 -38 -15 -38 1 0 10 6 13 16 9 8 -3 12 -2 9 4 -3 6 3 10 14 10 22 0 41
22 23 28 -14 4 19 38 46 46 18 6 20 17 21 161 2 143 -4 178 -24 146z m-25
-201 c0 -5 -5 -10 -11 -10 -5 0 -7 5 -4 10 3 6 8 10 11 10 2 0 4 -4 4 -10z
m38 -35 c-3 -31 -18 -21 -18 11 0 14 4 22 10 19 5 -3 9 -17 8 -30z m-43 -175
c-3 -5 -12 -10 -18 -10 -7 0 -6 4 3 10 19 12 23 12 15 0z"/>
<path d="M423 514 c-28 -30 -28 -36 -5 -57 15 -13 21 -14 31 -4 10 9 11 8 6
-8 l-7 -20 13 20 c7 11 17 24 23 28 6 5 1 5 -11 2 -33 -9 -44 1 -31 30 6 13
15 22 21 18 6 -3 7 -1 3 5 -10 16 -17 14 -43 -14z"/>
<path d="M320 509 c0 -6 5 -19 11 -30 8 -16 7 -23 -6 -33 -26 -19 -25 -63 2
-111 27 -49 44 -50 68 -6 8 14 14 20 15 13 0 -7 19 -22 42 -32 42 -19 43 -19
65 2 18 17 20 24 11 44 -6 13 -15 24 -20 24 -5 0 -6 -5 -3 -10 10 -16 -5 -50
-22 -50 -11 0 -14 6 -9 26 5 17 3 23 -4 19 -6 -3 -10 3 -10 14 0 23 -19 28
-38 9 -9 -9 -12 -8 -16 3 -3 8 -12 34 -20 59 -10 30 -15 37 -16 22 0 -13 -4
-21 -10 -17 -5 3 -7 12 -3 20 3 9 -1 15 -11 15 -10 0 -13 6 -10 15 4 8 1 15
-5 15 -6 0 -11 -5 -11 -11z m45 -79 c3 -5 -1 -10 -9 -10 -9 0 -16 5 -16 10 0
6 4 10 9 10 6 0 13 -4 16 -10z"/>
<path d="M186 481 c-11 -12 -14 -21 -7 -26 16 -9 30 3 28 25 -2 24 0 24 -21 1z"/>
<path d="M532 476 c-38 -14 -69 -53 -54 -68 11 -11 72 16 72 32 0 6 9 10 21
10 12 0 17 4 14 11 -4 6 -14 8 -22 4 -13 -4 -14 -3 -3 10 7 8 11 14 9 14 -2
-1 -19 -7 -37 -13z m-17 -46 c3 -5 1 -10 -4 -10 -6 0 -11 5 -11 10 0 6 2 10 4
10 3 0 8 -4 11 -10z"/>
<path d="M99 420 c-3 -32 -9 -46 -21 -48 -19 -4 -19 29 0 36 15 5 16 42 2 42
-5 0 -10 -9 -10 -20 0 -11 -7 -23 -15 -26 -18 -7 -43 16 -38 36 3 10 0 9 -7
-3 -6 -9 -10 -42 -8 -72 l3 -55 27 25 c31 28 43 32 35 11 -6 -16 26 -32 52
-27 9 2 12 -3 8 -13 -7 -19 4 -21 21 -4 9 9 12 9 12 0 0 -20 -28 -25 -53 -9
-12 8 -34 14 -47 13 -20 -1 -25 -6 -23 -26 1 -14 -3 -53 -8 -87 -11 -73 2
-109 33 -92 16 8 18 5 18 -25 0 -48 -15 -53 -50 -16 -20 21 -30 27 -30 17 0
-9 12 -25 27 -38 l28 -22 -27 5 c-19 4 -28 1 -28 -8 0 -11 18 -14 70 -14 39 0
70 2 70 4 0 2 -7 23 -15 46 -8 23 -15 49 -15 56 0 21 42 43 71 37 27 -5 39
-24 65 -98 l14 -40 -26 30 -26 30 16 -33 c13 -25 23 -32 45 -32 25 0 27 3 23
30 -5 36 0 37 37 9 25 -18 31 -19 50 -8 11 8 21 19 21 26 0 17 -35 34 -57 27
-10 -3 -7 2 7 10 l25 15 -37 1 c-20 0 -40 5 -44 12 -4 7 -3 8 4 4 17 -10 15
-1 -4 14 -12 11 -15 11 -12 -1 2 -10 -6 -14 -27 -13 -29 0 -30 2 -31 45 0 24
3 59 7 77 7 31 5 35 -23 46 -17 8 -26 16 -20 20 6 3 13 2 17 -3 3 -6 12 -8 19
-5 8 3 17 1 20 -5 4 -6 13 -8 22 -4 13 5 13 8 -2 24 -11 12 -13 19 -5 19 7 0
9 5 5 12 -4 6 -3 8 4 4 17 -10 21 8 6 29 -8 10 -14 13 -14 7 0 -7 -9 -3 -20 8
-11 11 -20 24 -20 29 0 5 -12 9 -26 9 -15 0 -30 6 -35 13 -6 10 -9 6 -9 -13 0
-16 -5 -28 -11 -28 -5 0 -7 -5 -4 -10 4 -6 10 -8 15 -5 4 3 10 -9 12 -25 5
-32 -8 -39 -31 -17 -11 10 -13 9 -7 -6 4 -13 2 -17 -6 -14 -7 2 -11 11 -9 18
2 8 5 24 6 37 2 13 8 29 15 37 8 10 8 15 -1 21 -8 4 -9 3 -5 -4 4 -7 3 -12 -3
-12 -5 0 -11 8 -14 18 -2 9 -6 -3 -8 -28z m41 -155 c0 -11 -29 -11 -33 -1 -4
10 1 12 14 9 10 -3 19 -7 19 -8z m40 -15 c0 -5 -9 -10 -19 -10 -11 0 -28 -3
-38 -6 -10 -3 -7 2 7 10 29 18 50 20 50 6z m40 6 c0 -11 -19 -15 -25 -6 -3 5
1 10 9 10 9 0 16 -2 16 -4z m-82 -56 c-7 -11 -16 -20 -21 -20 -4 0 -3 9 3 20
6 11 15 20 20 20 6 0 5 -9 -2 -20z m37 -30 c-3 -5 -11 -10 -16 -10 -6 0 -7 5
-4 10 3 6 11 10 16 10 6 0 7 -4 4 -10z m-90 -28 c0 -18 -20 -15 -23 4 -3 10 1
15 10 12 7 -3 13 -10 13 -16z"/>
<path d="M242 429 c2 -6 8 -10 13 -10 5 0 11 4 13 10 2 6 -4 11 -13 11 -9 0
-15 -5 -13 -11z"/>
<path d="M555 420 c-3 -5 -1 -10 4 -10 6 0 11 5 11 10 0 6 -2 10 -4 10 -3 0
-8 -4 -11 -10z"/>
<path d="M285 320 c3 -5 11 -10 16 -10 6 0 7 5 4 10 -3 6 -11 10 -16 10 -6 0
-7 -4 -4 -10z"/>
<path d="M455 119 c-4 -6 -5 -12 -2 -15 2 -3 7 2 10 11 7 17 1 20 -8 4z"/>
</g>
</svg>
